<svg width="141" height="140" viewBox="0 0 141 140" fill="none" xmlns="http://www.w3.org/2000/svg">
    <g clip-path="url(#clip0_65_6029)">
        <path d="M75.2608 68.8647C75.2608 68.8647 81.8217 83.2564 77.0386 87.7432C77.0386 87.7432 88.5096 99.9762 82.2873 108.865C77.1233 116.23 32.7206 105.648 32.7206 105.648C32.7206 105.648 40.7207 92.103 41.3556 83.6373C42.2868 71.4044 41.1016 58.3249 45.8424 48.547C53.8002 31.9118 75.2608 68.8647 75.2608 68.8647Z" fill="#261A1A"/>
        <path d="M58.4987 83.1713C61.3347 88.1237 61.0808 102.431 63.6628 107.553C64.3824 108.949 65.2713 110.219 66.2025 111.447C67.2607 112.759 95.1129 114.325 95.6632 111.193C97.3563 101.796 89.4832 99.3831 93.6314 77.6685C94.3087 74.1129 100.7 59.0863 97.568 50.5359C94.4356 41.9856 92.3192 39.0226 86.6049 39.2765C85.3773 39.3189 84.1921 28.3135 73.1021 27.8055C66.1179 27.4669 60.3188 32.8003 60.3188 32.8003C59.4723 34.4934 51.8954 31.1918 48.5092 37.7104C44.6996 44.9486 43.726 54.5148 43.726 54.5148C45.9694 59.4249 48.2975 61.5414 50.5409 66.4515" fill="#261A1A"/>
        <path d="M99.7806 103.112C100.029 97.9056 98.7785 92.8091 97.2167 87.8525C96.4338 85.3953 95.4361 82.9599 95.2172 80.3871C95.0023 77.7723 95.8245 75.4278 96.6969 73.0032C98.1537 68.934 98.4851 64.6284 97.5322 60.4112C96.4936 55.7604 93.9859 51.3503 90.3285 48.2748C89.8976 47.893 89.7019 47.2787 90.0498 46.7595C90.3474 46.3205 91.0922 46.0948 91.5652 46.4808C98.6055 52.3925 101.783 62.1832 99.6012 71.1153C99.0318 73.4842 97.7965 75.7036 97.4378 78.0929C97.0547 80.735 97.9939 83.3349 98.7769 85.7921C100.487 90.9756 101.974 96.2651 101.95 101.791" fill="#261A1A"/>
        <path d="M54.5198 32.8003C51.0065 33.3929 50.4563 32.0384 51.2182 27.7209C51.9801 23.4034 57.3558 20.1441 60.7844 20.0171C67.811 19.7631 71.4512 22.3452 69.8428 27.3823C63.8321 29.287 60.3188 31.4458 59.3453 32.631C57.8638 32.9273 58.0754 32.2077 54.5198 32.8003Z" fill="#261A1A"/>
        <path d="M48.8999 93.481C52.2226 91.2131 56.1519 90 60.1748 90H78.0596C81.9362 90 85.7292 91.1266 88.9772 93.2427L109.329 106.502C114.2 109.676 117.449 114.812 118.23 120.572L121 141H19.5L21.5591 120.753C22.1557 114.886 25.3109 109.581 30.1816 106.257L48.8999 93.481Z" fill="#484B4C"/>
        <path d="M57.1118 88.8355L59 78.4502H79L80.8882 88.8355C80.961 89.2358 81.1541 89.6043 81.4418 89.892L82.5608 91.011C83.3515 91.8017 83.3402 93.0872 82.5357 93.864L72.1874 103.856C70.6744 105.316 68.2886 105.356 66.7278 103.946L55.5616 93.8607C54.7123 93.0935 54.6787 91.7715 55.488 90.9622L56.5582 89.892C56.8459 89.6043 57.039 89.2358 57.1118 88.8355Z" fill="#E99167"/>
        <path d="M57.64 85.9502L59 78.4502L79.7623 79.4102C79.7623 79.4102 80.18 92.1802 57.64 85.9502Z" fill="#1A1A1A"/>
        <path d="M91.645 36.5205C90.315 36.3805 88.985 36.5905 87.795 37.1155C87.865 36.9755 87.97 36.8355 88.075 36.6955C88.775 35.6455 87.095 34.6655 86.395 35.7155C85.8 36.5905 85.38 37.5705 85.1 38.5855C84.96 39.1105 85.24 39.4955 85.625 39.6705C85.905 40.0555 86.535 40.2655 87.025 39.8455C88.355 38.7255 89.895 38.1655 91.645 38.3405C92.8 38.4105 92.765 36.6605 91.645 36.5205Z" fill="#261A1A"/>
        <path d="M54.0373 55.6095C54.0373 55.6445 54.0373 55.6446 54.0373 55.6796C49.9773 55.0496 49.3823 58.6546 49.5223 60.5796C49.6973 63.2746 49.0673 68.7695 53.7573 68.9095C54.1073 71.5345 53.7923 72.7945 54.4573 75.3495C55.0523 77.6245 58.5873 81.0195 59.8473 82.3845C62.2623 85.0095 68.4223 85.8495 71.4673 85.3245C76.6823 84.4145 80.3573 81.4395 82.4923 78.0445C84.1723 75.3845 83.9273 73.4945 84.7323 70.3095C84.7323 70.3095 89.5273 69.8545 90.1223 62.4345C90.2973 60.1595 88.5823 55.9246 86.4823 56.9396C86.9373 55.1196 87.9873 51.6195 87.0073 51.1995C84.4873 50.0795 82.4573 46.0895 81.4423 45.4945C79.8673 44.6195 75.7373 44.7945 75.1773 44.7945C72.8673 44.7595 71.4323 39.7545 69.8923 41.4345C68.2473 43.2545 64.0473 46.5795 62.0173 47.5245C60.1623 48.3995 57.9573 49.9745 55.6123 50.3945C55.3673 50.4295 55.0873 50.2545 54.8773 50.3945C54.6673 50.5345 54.5623 50.7795 54.5273 51.0245C54.1773 52.1445 54.1073 54.5245 54.0373 55.6095Z" fill="#E99167"/>
        <path d="M67.9323 69.225C67.5473 68.595 68.1423 67.965 68.7373 68.14C69.0523 68.175 69.3673 68.21 69.6823 68.245C70.2423 68.245 70.6623 68.91 70.2423 69.435C70.1023 69.61 69.8573 69.715 69.6123 69.68C69.2273 69.645 68.8773 69.61 68.4923 69.54C68.2473 69.54 68.0373 69.435 67.9323 69.225Z" fill="#D5745C"/>
        <path d="M64.3973 74.825C64.3973 74.825 73.9873 74.02 73.8473 74.65C73.6023 75.665 71.7473 78.885 69.1923 78.885C66.3923 78.885 62.1223 75.315 64.3973 74.825Z" fill="white"/>
        <path d="M76.3674 52.2901C77.3124 52.6751 78.2924 52.8851 79.2374 53.3051C80.1824 53.7251 81.0574 54.2851 82.0024 54.7401C82.8424 55.1601 82.2474 56.4901 81.4074 56.0701C80.4974 55.6151 79.5874 55.0551 78.6774 54.6351C77.7324 54.2151 76.7524 54.0051 75.8074 53.6201C74.9324 53.3051 75.4924 51.9751 76.3674 52.2901Z" fill="#261A1A"/>
        <path d="M57.5724 55.1243C58.4824 54.7043 59.3574 54.1443 60.3024 53.7593C61.2474 53.3743 62.2624 53.1293 63.2424 52.7793C64.1174 52.4643 64.6774 53.7943 63.8024 54.1093C62.8224 54.4593 61.8074 54.7043 60.8624 55.0893C59.9174 55.4743 59.0774 56.0343 58.1324 56.4543C57.2574 56.8743 56.7324 55.5443 57.5724 55.1243Z" fill="#261A1A"/>
        <path d="M76.7873 59.4245C77.0323 59.1445 77.3123 59.0045 77.6623 59.0395C77.6973 59.0395 77.7323 59.0395 77.7673 59.0395H77.8023H77.8373C78.9923 59.1095 79.3773 60.6495 78.8873 61.5245C78.8173 61.7345 78.7123 61.9445 78.5373 62.0495C78.3623 62.1895 78.1523 62.2245 77.9073 62.2245C77.8723 62.2245 77.8723 62.2595 77.8373 62.2595C77.3123 62.3995 76.9273 62.1195 76.6823 61.6645C76.1923 61.0695 76.2273 60.0545 76.7873 59.4245Z" fill="#1A1A1A"/>
        <path d="M60.8623 59.04C61.3173 58.375 62.1923 58.2349 62.8223 58.7249C62.8923 58.7599 62.9273 58.83 62.9623 58.865C63.1023 59.04 63.2073 59.2499 63.2073 59.4949C63.2073 59.5299 63.2073 59.565 63.2073 59.565C63.2073 59.565 63.2073 59.5649 63.2073 59.5999C63.1723 60.0199 63.1023 60.4749 62.8573 60.8249C62.4023 61.5249 61.4223 61.4899 60.8973 60.8949C60.4773 60.3699 60.5123 59.6 60.8623 59.04Z" fill="#1A1A1A"/>
        <path d="M72.5 45.5C66.1051 40.384 68.5 38.5 68.5 38.5L70.5 37L91.5 47L97 60L93 79L80 84C80 84 80.8777 80.8337 81.5 78.5C83.1866 72.1746 86.5 67.5 86.5 62C86.5 57.1028 83.182 52.5 81.5 51C80.5 50.1082 75 47.5 72.5 45.5Z" fill="#261A1A"/>
        <path d="M38.6704 129.954C38.5013 132.153 38.3755 134.553 38 138L39 138C39.3755 134.553 39.4621 132.32 39.5901 130.111C39.8139 126.57 38.8989 126.208 38.6704 129.954Z" fill="#2E3233"/>
        <path d="M101.229 129.954C101.398 132.153 101.524 134.553 101.9 138L100.9 138C100.524 134.553 100.437 132.32 100.31 130.111C100.086 126.57 101.001 126.208 101.229 129.954Z" fill="#2E3233"/>
        <path d="M56 90.5V90.5C55.1897 91.3103 55.2152 92.6437 56.0669 93.4102L66.7301 103.007C68.2906 104.412 70.6713 104.371 72.1825 102.913L82.0339 93.4137C82.8393 92.6371 82.8509 91.3509 82.0598 90.5598L82 90.5L83.5575 90.8894C84.6226 91.1557 84.9807 92.4884 84.1926 93.2526L72.2408 104.842C70.7069 106.33 68.2748 106.349 66.7175 104.886L54.5219 93.4294C53.5271 92.4949 53.8319 91.0711 55.1512 90.721C55.6412 90.5909 56 90.5 56 90.5Z" fill="#2E3233"/>
    </g>
    <defs>
        <clipPath id="clip0_65_6029">
            <rect x="0.5" width="140" height="140" rx="70" fill="white"/>
        </clipPath>
    </defs>
</svg>