
<svg width="305.99994px" height="198.971px" viewBox="0 0 305.99994 198.971" version="1.1" xmlns="http://www.w3.org/2000/svg" xmlns:xlink="http://www.w3.org/1999/xlink">
    <g id="Page-1" stroke="none" stroke-width="1" fill="none" fill-rule="evenodd">
        <g id="graph">
            <path d="M27.6475,8.54883 L4.60768,8.54883 L0,8.54883 L0,198.963 L305.813,198.963 L305.813,28.9534 L302.59,28.8734 C282.622,28.8734 306.685,86.2149 268.798,85.0334 C234.494,83.9637 246.27,27.2688 217.086,19.246 C187.902,11.2231 171.006,41.71 165.887,48.1283 C160.767,54.5466 149.503,70.5923 130.047,69.5226 C110.591,68.4529 95.231,45.9888 77.3111,27.2688 C59.3913,8.54883 49.1514,8.54883 27.6475,8.54883 Z" id="Path" fill="#FCE7DE" fill-rule="nonzero"></path>
            <ellipse id="Oval" fill="#ED563B" fill-rule="nonzero" cx="301.789" cy="28.8687" rx="4.09597" ry="4.27886"></ellipse>
            <path d="M4.60742,8.54883 C5.11942,8.54883 10.4442,8.54883 27.6473,8.54883 C49.1511,8.54883 59.391,8.54883 77.3109,27.2688 C95.2308,45.9888 110.591,68.4528 130.047,69.5226 C149.502,70.5923 160.766,54.5466 165.886,48.1283 C171.006,41.71 187.902,11.2231 217.086,19.246 C246.27,27.2688 234.494,83.9637 268.798,85.0334 C306.685,86.2149 282.621,28.8734 302.589,28.8734" id="Path" stroke="#ED563B" stroke-width="3"></path>
            <path d="M135.167,89.8598 C71.1675,22.9993 30.2078,8.56147 5.11996,8.56981551 L0,8.56981551 L0,198.971 L305.813,198.971 L305.813,156.194 L298.494,156.194 C252.414,156.194 186.542,143.531 135.167,89.8598 Z" id="Path" fill="#E6ECCE" fill-rule="nonzero"></path>
            <path d="M5.12305,8.56981602 C30.2109,8.56147 71.6825,23.5342 135.682,90.3946 C187.057,144.066 252.417,156.194 298.497,156.194" id="Path" stroke="#498A36" stroke-width="3"></path>
            <ellipse id="Oval" fill="#498A36" fill-rule="nonzero" cx="297.808" cy="156.182" rx="8.19194" ry="8.55772"></ellipse>
            <ellipse id="Oval" fill="#FFFFFF" fill-rule="nonzero" cx="297.811" cy="156.183" rx="4.09597" ry="4.27886"></ellipse>
            <ellipse id="Oval" fill="#498A36" fill-rule="nonzero" cx="8.24858" cy="8.55772" rx="8.19194" ry="8.55772"></ellipse>
            <ellipse id="Oval" fill="#FFFFFF" fill-rule="nonzero" cx="8.25027" cy="8.55864" rx="4.09597" ry="4.27886"></ellipse>
        </g>
        <g id="LOGO" transform="translate(5, 157)" fill-rule="nonzero">
            <path d="M16.9992715,11.2858194 L16.9992715,13.6256133 C16.9992715,14.4742395 16.5410721,14.9114328 15.7266572,14.9114328 L11.2473754,14.9114328 C11.2473754,14.9114328 11.2473754,26.7141806 11.2473754,26.7141806 C11.2473754,27.5370461 10.789176,28 9.97548957,28 L7.02305352,28 C6.2093671,28 5.75116767,27.5370461 5.75116767,26.7141806 L5.75116767,14.9114328 C5.75116767,14.9114328 1.27188585,14.9114328 1.27188585,14.9114328 C0.458199426,14.9114328 0,14.4742395 0,13.6256133 L0,11.2858194 C0,10.4629539 0.458199426,10 1.27188585,10 L15.7273857,10 C16.5418006,10 17,10.4629539 17,11.2858194 L16.9992715,11.2858194 Z" id="Path" fill="#1D1D1B"></path>
            <path d="M38,11.2858194 L38,26.7141806 C38,27.5370461 37.5369893,28 36.7147589,28 L33.7313213,28 C32.9090909,28 32.4460802,27.5370461 32.4460802,26.7141806 L32.4460802,21.1602061 C32.4460802,21.1602061 25.5539198,21.1602061 25.5539198,21.1602061 L25.5539198,26.7141806 C25.5539198,27.5370461 25.0909091,28 24.2686787,28 L21.2852411,28 C20.4630107,28 20,27.5370461 20,26.7141806 L20,11.2858194 C20,10.4629539 20.4630107,10 21.2852411,10 L24.2686787,10 C25.0909091,10 25.5539198,10.4629539 25.5539198,11.2858194 L25.5539198,16.2230128 C25.5539198,16.2230128 32.4460802,16.2230128 32.4460802,16.2230128 L32.4460802,11.2858194 C32.4460802,10.4629539 32.9090909,10 33.7313213,10 L36.7147589,10 C37.5369893,10 38,10.4629539 38,11.2858194 L38,11.2858194 Z" id="Path" fill="#1D1D1B"></path>
            <path d="M57.9993007,24.8881256 L57.9993007,26.7141806 C57.9993007,27.5370461 57.5832362,28 56.7776794,28 L44.2209221,28 C43.4398396,28 43,27.5370461 43,26.7141806 L43,11.2858194 C43,10.4371933 43.4398396,10 44.2209221,10 L56.5336348,10 C57.3398909,10 57.7552562,10.4371933 57.7552562,11.2858194 L57.7552562,13.1118744 C57.7552562,13.9347399 57.3398909,14.3976938 56.5336348,14.3976938 L48.2766771,14.3976938 C48.2766771,14.3976938 48.2766771,16.9170756 48.2766771,16.9170756 L54.6029556,16.9170756 C55.2623654,16.9170756 55.6287819,17.3027478 55.6287819,17.9968106 L55.6287819,19.6425417 C55.6287819,20.3366045 55.2623654,20.7222767 54.6029556,20.7222767 L48.2766771,20.7222767 C48.2766771,20.7222767 48.2766771,23.6023062 48.2766771,23.6023062 L56.7783786,23.6023062 C57.5846347,23.6023062 58,24.0394995 58,24.8881256 L57.9993007,24.8881256 Z" id="Path" fill="#1D1D1B"></path>
            <path d="M78.8926938,28 L75.5194134,28 C74.7902891,28 74.3371081,27.6400736 74.0849406,26.9459824 L73.4552424,25.1971376 L66.2569415,25.1971376 C66.2569415,25.1971376 65.6272432,26.9459824 65.6272432,26.9459824 C65.3757962,27.6658352 64.9226152,28 64.1927705,28 L61.122091,28 C60.1652956,28 59.7632685,27.356696 60.1400788,26.4830096 L66.5328847,11.0032304 C66.8095485,10.3091392 67.2627295,10 67.968078,10 L72.0459864,10 C72.7498939,10 73.2030749,10.3091392 73.4804591,11.0032304 L79.8732651,26.4830096 C80.2262995,27.357432 79.823552,28 78.8919733,28 L78.8926938,28 Z M72.0964199,21.3652832 L69.8564522,14.9881824 L67.5912677,21.3652832 L72.0964199,21.3652832 Z" id="Shape" fill="#1D1D1B"></path>
            <path d="M83,26.7142331 L83,11.2865028 C83,10.4636709 83.4751322,10.000736 84.3188884,10.000736 L86.825985,10.000736 C87.5118674,10.000736 88.0134378,10.206076 88.4621318,10.7205299 L96.51143,19.7709449 L96.51143,11.2857669 C96.51143,10.4629349 96.9865622,10 97.8303185,10 L100.680356,10 C101.524868,10 102,10.4629349 102,11.2857669 L102,26.7134972 C102,27.5363291 101.524868,27.999264 100.680356,27.999264 L98.3847652,27.999264 C97.725321,27.999264 97.1973124,27.793924 96.7750567,27.2794701 L88.48857,17.9464366 L88.48857,26.7142331 C88.48857,27.5370651 88.0134378,28 87.1689262,28 L84.3188884,28 C83.4751322,28 83,27.5370651 83,26.7142331 L83,26.7142331 Z" id="Path" fill="#1D1D1B"></path>
            <path d="M120.999301,24.8881256 L120.999301,26.7141806 C120.999301,27.5370461 120.583236,28 119.777679,28 L107.220922,28 C106.43984,28 106,27.5370461 106,26.7141806 L106,11.2858194 C106,10.4371933 106.43984,10 107.220922,10 L119.533635,10 C120.339891,10 120.755256,10.4371933 120.755256,11.2858194 L120.755256,13.1118744 C120.755256,13.9347399 120.339891,14.3976938 119.533635,14.3976938 L111.276677,14.3976938 C111.276677,14.3976938 111.276677,16.9170756 111.276677,16.9170756 L117.028157,16.9170756 C117.687567,16.9170756 118.053983,17.3027478 118.053983,17.9968106 L118.053983,19.6425417 C118.053983,20.3366045 117.687567,20.7222767 117.028157,20.7222767 L111.276677,20.7222767 C111.276677,20.7222767 111.276677,23.6023062 111.276677,23.6023062 L119.778379,23.6023062 C120.584635,23.6023062 121,24.0394995 121,24.8881256 L120.999301,24.8881256 Z" id="Path" fill="#1D1D1B"></path>
            <path d="M124.305039,26.3542016 L129.467299,18.8200368 L124.556628,11.6457984 C123.926574,10.7198528 124.305039,10 125.41304,10 L128.762274,10 C129.49253,10 129.996429,10.2826416 130.374173,10.900184 L133.169767,15.2207728 L135.965361,10.900184 C136.343105,10.2833776 136.847004,10 137.57726,10 L140.599212,10 C141.681982,10 142.059726,10.7198528 141.455624,11.6457984 L136.544232,18.8200368 L141.707213,26.3542016 C142.311315,27.2801472 141.958802,28 140.850801,28 L137.500847,28 C136.77059,28 136.267412,27.7173584 135.888947,27.099816 L132.841764,22.4450624 L129.744119,27.099816 C129.366376,27.7166224 128.862477,28 128.13222,28 L125.16073,28 C124.052729,28 123.674264,27.2801472 124.304318,26.3542016 L124.305039,26.3542016 Z" id="Path" fill="#1D1D1B"></path>
            <rect id="Rectangle" fill="#90C152" x="0" y="0" width="17" height="5" rx="2.18"></rect>
            <rect id="Rectangle" fill="#B3C038" x="124" y="32" width="18" height="5" rx="2.18"></rect>
        </g>
    </g>
</svg>