<?xml version="1.0" encoding="utf-8"?>
<!-- Generator: Adobe Illustrator 25.3.0, SVG Export Plug-In . SVG Version: 6.00 Build 0)  -->
<svg version="1.1" id="Layer_1" xmlns="http://www.w3.org/2000/svg" xmlns:xlink="http://www.w3.org/1999/xlink" x="0px" y="0px"
	 viewBox="0 0 306 199" style="enable-background:new 0 0 306 199;" xml:space="preserve">
<style type="text/css">
	.st0{fill:#FCE7DE;}
	.st1{fill:#ED563B;}
	.st2{fill:none;stroke:#ED563B;stroke-width:3;}
	.st3{fill:#E6ECCE;}
	.st4{fill:none;stroke:#498A36;stroke-width:3;}
	.st5{fill:#498A36;}
	.st6{fill:#FFFFFF;}
	.st7{fill:#4771B5;}
	.st8{fill:#FF0000;}
</style>
<g id="graph_1_">
	<path id="Path_7_" class="st0" d="M27.6,8.5h-23H0V199h305.8V29l-3.2-0.1c-20,0,4.1,57.3-33.8,56.2c-34.3-1.1-22.5-57.8-51.7-65.8
		S171,41.8,165.9,48.2s-16.4,22.5-35.8,21.4C110.6,68.5,95.2,46,77.3,27.3C59.4,8.5,49.2,8.5,27.6,8.5z"/>
	<ellipse id="Oval_9_" class="st1" cx="301.8" cy="28.9" rx="4.1" ry="4.3"/>
	<path id="Path_6_" class="st2" d="M4.6,8.5c0.5,0,5.8,0,23,0c21.5,0,31.7,0,49.7,18.7C95.2,46,110.6,68.5,130,69.5
		c19.5,1.1,30.7-15,35.8-21.4s22-36.9,51.2-28.9s17.4,64.7,51.7,65.8c37.9,1.2,13.8-56.2,33.8-56.2"/>
	<path id="Path_5_" class="st3" d="M135.2,89.9C71.2,23,30.2,8.6,5.1,8.6H0V199h305.8v-42.8h-7.3
		C252.4,156.2,186.5,143.5,135.2,89.9z"/>
	<path id="Path_4_" class="st4" d="M5.1,8.6c25.1,0,66.6,15,130.6,81.8c51.4,53.7,116.7,65.8,162.8,65.8"/>
	<ellipse id="Oval_8_" class="st5" cx="297.8" cy="156.2" rx="8.2" ry="8.6"/>
	<ellipse id="Oval_7_" class="st6" cx="297.8" cy="156.2" rx="4.1" ry="4.3"/>
	<ellipse id="Oval_6_" class="st5" cx="8.2" cy="8.6" rx="8.2" ry="8.6"/>
	<ellipse id="Oval_5_" class="st6" cx="8.3" cy="8.6" rx="4.1" ry="4.3"/>
</g>
<g>
	<path class="st7" d="M13.4,167.1v1h3.8v4h-3.8v11.6c0,4.1-2.4,6.7-6.2,6.7c-0.9,0-1.7-0.1-2.2-0.4v-4.2c0.3,0.1,0.8,0.2,1.3,0.2
		c1.4,0,2.2-1,2.2-2.6V172H5.9v-4h2.6v-1.2c0-3.6,2.3-5.8,6.4-5.8c1,0,1.7,0.1,2.3,0.3v3.7c-0.4-0.1-0.8-0.2-1.4-0.2
		C14.1,164.9,13.4,165.7,13.4,167.1z"/>
	<path class="st7" d="M16.6,176.1c0-4.7,3.7-8.5,8.7-8.5c5.1,0,8.8,3.8,8.8,8.5c0,4.8-3.7,8.5-8.8,8.5
		C20.3,184.7,16.6,181,16.6,176.1z M29.4,176.1c0-2.4-1.7-4.3-4-4.3s-4,1.9-4,4.3c0,2.5,1.7,4.4,4,4.4S29.4,178.6,29.4,176.1z"/>
	<path class="st7" d="M47.4,167.9v4.9c-0.5-0.2-1.2-0.4-2-0.4c-2.3,0-4.2,1.4-4.2,4.1v7.8h-5v-16.1h4.5v3.1c0.8-2.2,2.8-3.6,5.2-3.6
		C46.4,167.7,47,167.8,47.4,167.9z"/>
	<path class="st7" d="M75.8,174.1v10.1h-5v-9.1c0-2.1-1.1-3.4-2.8-3.4c-2,0-3.3,1.5-3.3,3.8v8.8h-5v-9.1c0-2.1-1.1-3.4-2.8-3.4
		c-2,0-3.3,1.5-3.3,3.8v8.8h-5v-16.1h4.8v2.5c0.9-1.6,2.9-3,5.3-3c2.5,0,4.5,1.2,5.5,3.2c1-1.8,3-3.2,5.7-3.2
		C73.4,167.7,75.8,170.1,75.8,174.1z"/>
	<path class="st7" d="M78.6,176.6v-8.5h5v8.8c0,2.1,1,3.6,3.2,3.6s3.2-1.4,3.2-3.6v-8.8h5v8.5c0,5-3,8.1-8.2,8.1
		C81.6,184.7,78.6,181.6,78.6,176.6z"/>
	<path class="st7" d="M97.7,161.3h4.9v17.5c0,1,0.6,1.4,1.3,1.4c0.5,0,0.8-0.1,1.1-0.3v4c-0.5,0.4-1.6,0.6-2.6,0.6
		c-3.3,0-4.7-2.2-4.7-4.9C97.7,179.6,97.7,161.3,97.7,161.3z"/>
	<path class="st7" d="M121.2,177.3H110c0.5,2.2,2.3,3.4,5.2,3.4c2.3,0,4-0.5,5.2-1.2l0.1,3.9c-1.6,0.9-3.7,1.3-5.8,1.3
		c-5.6,0-9.2-3.5-9.2-8.5c0-4.7,3.5-8.5,8.2-8.5c4.4,0,7.7,3.1,7.7,7.9C121.4,176.3,121.3,176.9,121.2,177.3z M110,174.6h7
		c-0.1-1.9-1.5-3.1-3.4-3.1C111.8,171.6,110.5,172.8,110,174.6z"/>
	<path class="st7" d="M147,174.2v10h-5v-8.9c0-2.3-1.1-3.6-3.1-3.6s-3.5,1.5-3.5,4v8.6h-5v-22.9h4.8v8.8c1-1.4,3-2.5,5.4-2.5
		C144.4,167.7,147,170.2,147,174.2z"/>
</g>
<g>
	<path class="st8" d="M190,115.7c-0.5-0.7-0.8-1.5-0.8-2.5c0-1.5,0.5-2.8,1.5-3.8c0.9-0.9,2.1-1.4,3.5-1.4c1.5,0,2.8,0.6,3.5,1.6
		c0.5,0.7,0.8,1.5,0.8,2.5c0,1.5-0.5,2.8-1.5,3.8c-0.9,0.9-2.1,1.4-3.5,1.4C192,117.4,190.8,116.8,190,115.7z M195.6,114.8
		c0.6-0.6,1-1.5,1-2.5c0-0.6-0.2-1.1-0.5-1.5c-0.4-0.6-1.1-0.9-1.9-0.9c-0.8,0-1.5,0.3-2,0.8c-0.6,0.6-1,1.5-1,2.5
		c0,0.6,0.2,1.1,0.5,1.5c0.4,0.6,1.1,0.9,1.9,0.9C194.4,115.6,195.1,115.3,195.6,114.8z"/>
	<path class="st8" d="M201.3,114.9c0,0.1,0,0.2,0,0.4c0,0.4,0.2,0.6,0.5,0.6c0.2,0,0.4,0,0.6-0.1l-0.3,1.5c-0.2,0.1-0.6,0.2-0.9,0.2
		c-1,0-1.6-0.6-1.6-1.7c0-0.3,0-0.6,0.1-0.9l0.5-2.2h-0.9l0.3-1.5h0.9l0.3-1.5h1.7l-0.3,1.5h1.3l-0.3,1.5h-1.3L201.3,114.9z"/>
	<path class="st8" d="M209.8,113.8l-0.7,3.4h-1.7l0.7-3.3c0.2-0.9-0.2-1.5-0.9-1.5c-0.7,0-1.2,0.5-1.4,1.5l-0.7,3.3h-1.7l1.9-9h1.6
		l-0.9,3.9c0.4-0.7,1.1-1.1,2-1.1C209.3,111,210.2,112.2,209.8,113.8z"/>
	<path class="st8" d="M216.9,114.8h-4.2c0,0.3,0.2,0.5,0.3,0.7c0.3,0.3,0.8,0.5,1.5,0.5c0.8,0,1.7-0.3,2.1-0.5l-0.4,1.6
		c-0.3,0.2-1.2,0.4-2,0.4c-1.2,0-2.1-0.4-2.6-1.1c-0.4-0.5-0.6-1.1-0.6-1.8c0-1,0.4-1.9,1-2.5c0.6-0.6,1.5-1,2.5-1
		c1,0,1.7,0.4,2.2,1c0.4,0.4,0.6,1,0.6,1.6C217.1,114,217,114.5,216.9,114.8z M213.2,112.9c-0.2,0.2-0.3,0.4-0.4,0.7h2.7v-0.1
		c0-0.3-0.1-0.6-0.3-0.8c-0.2-0.2-0.5-0.3-0.9-0.3C213.8,112.4,213.4,112.6,213.2,112.9z"/>
	<path class="st8" d="M222.7,111.1l-0.4,1.6c-0.2-0.1-0.4-0.1-0.7-0.1c-0.8,0-1.4,0.5-1.7,1.5l-0.7,3.1h-1.7l1.3-6h1.6l-0.3,1.3
		c0.4-0.9,1.1-1.5,2-1.5C222.4,111,222.6,111,222.7,111.1z"/>
	<path class="st8" d="M227,109.9H225l0.4-1.7h6l-0.4,1.7h-2.1l-1.5,7.3h-1.9L227,109.9z"/>
	<path class="st8" d="M234.4,111.1l-0.4,1.6c-0.2-0.1-0.4-0.1-0.7-0.1c-0.8,0-1.4,0.5-1.7,1.5l-0.7,3.1h-1.7l1.3-6h1.6l-0.3,1.3
		c0.4-0.9,1.1-1.5,2-1.5C234.1,111,234.3,111,234.4,111.1z"/>
	<path class="st8" d="M240.4,114.8h-4.2c0,0.3,0.2,0.5,0.3,0.7c0.3,0.3,0.8,0.5,1.5,0.5c0.8,0,1.7-0.3,2.1-0.5l-0.4,1.6
		c-0.3,0.2-1.2,0.4-2,0.4c-1.2,0-2.1-0.4-2.6-1.1c-0.4-0.5-0.6-1.1-0.6-1.8c0-1,0.4-1.9,1-2.5c0.6-0.6,1.5-1,2.5-1
		c1,0,1.7,0.4,2.2,1c0.4,0.4,0.6,1,0.6,1.6C240.7,114,240.6,114.5,240.4,114.8z M236.7,112.9c-0.2,0.2-0.3,0.4-0.4,0.7h2.7v-0.1
		c0-0.3-0.1-0.6-0.3-0.8c-0.2-0.2-0.5-0.3-0.9-0.3C237.4,112.4,237,112.6,236.7,112.9z"/>
	<path class="st8" d="M247.8,115.9c0.1,0,0.3,0,0.4-0.1l-0.3,1.3c-0.2,0.1-0.5,0.2-0.8,0.2c-0.7,0-1.2-0.4-1.3-1.1
		c-0.1,0.2-0.2,0.3-0.3,0.4c-0.4,0.4-1,0.6-1.6,0.6c-0.8,0-1.5-0.4-2-1c-0.3-0.5-0.5-1.1-0.5-1.8c0-0.4,0.1-0.9,0.2-1.2
		c0.2-0.5,0.4-1,0.8-1.4c0.6-0.6,1.3-1,2.2-1c0.6,0,1.1,0.2,1.4,0.5c0.2,0.2,0.3,0.4,0.4,0.6l0.2-1h1.7l-0.9,4.2
		C247.4,115.7,247.6,115.9,247.8,115.9z M245.6,115.4c0.4-0.4,0.5-0.9,0.5-1.5c0-0.5-0.2-0.8-0.4-1.1c-0.2-0.2-0.5-0.3-0.9-0.3
		c-0.4,0-0.8,0.2-1.1,0.5c-0.2,0.2-0.3,0.4-0.4,0.7c-0.1,0.2-0.1,0.5-0.1,0.8c0,0.4,0.1,0.7,0.3,1c0.2,0.3,0.6,0.4,1,0.4
		C244.9,115.9,245.3,115.7,245.6,115.4z"/>
	<path class="st8" d="M251.4,114.9c0,0.1,0,0.2,0,0.4c0,0.4,0.2,0.6,0.5,0.6c0.2,0,0.4,0,0.6-0.1l-0.3,1.5c-0.2,0.1-0.6,0.2-0.9,0.2
		c-1,0-1.6-0.6-1.6-1.7c0-0.3,0-0.6,0.1-0.9l0.5-2.2h-0.9l0.3-1.5h0.9l0.3-1.5h1.7l-0.3,1.5h1.3l-0.3,1.5h-1.3L251.4,114.9z"/>
	<path class="st8" d="M264,113.8l-0.7,3.4h-1.7l0.7-3.3c0.2-0.9-0.2-1.5-0.9-1.5c-0.7,0-1.2,0.5-1.4,1.4l0,0l0,0.1l-0.7,3.3h-1.7
		l0.7-3.3c0.2-0.9-0.2-1.5-0.9-1.5c-0.7,0-1.2,0.5-1.4,1.5l-0.7,3.3h-1.7l1.3-6h1.6l-0.2,1c0.4-0.8,1.1-1.2,2-1.2s1.5,0.5,1.8,1.3
		c0.4-0.8,1.3-1.2,2.2-1.2C263.5,111,264.3,112.2,264,113.8z"/>
	<path class="st8" d="M271,114.8h-4.2c0,0.3,0.2,0.5,0.3,0.7c0.3,0.3,0.8,0.5,1.5,0.5c0.8,0,1.7-0.3,2.1-0.5l-0.4,1.6
		c-0.3,0.2-1.2,0.4-2,0.4c-1.2,0-2.1-0.4-2.6-1.1c-0.4-0.5-0.6-1.1-0.6-1.8c0-1,0.4-1.9,1-2.5c0.6-0.6,1.5-1,2.5-1
		c1,0,1.7,0.4,2.2,1c0.4,0.4,0.6,1,0.6,1.6C271.3,114,271.1,114.5,271,114.8z M267.3,112.9c-0.2,0.2-0.3,0.4-0.4,0.7h2.7v-0.1
		c0-0.3-0.1-0.6-0.3-0.8c-0.2-0.2-0.5-0.3-0.9-0.3C268,112.4,267.6,112.6,267.3,112.9z"/>
	<path class="st8" d="M278.3,113.8l-0.7,3.4h-1.7l0.7-3.3c0.2-0.9-0.2-1.5-0.9-1.5c-0.7,0-1.2,0.5-1.4,1.5l-0.7,3.3h-1.7l1.3-6h1.6
		l-0.2,1c0.4-0.8,1.1-1.2,2-1.2C277.8,111,278.6,112.2,278.3,113.8z"/>
	<path class="st8" d="M281.4,114.9c0,0.1,0,0.2,0,0.4c0,0.4,0.2,0.6,0.5,0.6c0.2,0,0.4,0,0.6-0.1l-0.3,1.5c-0.2,0.1-0.6,0.2-0.9,0.2
		c-1,0-1.6-0.6-1.6-1.7c0-0.3,0-0.6,0.1-0.9l0.5-2.2h-0.9l0.3-1.5h0.9l0.3-1.5h1.7l-0.3,1.5h1.3l-0.3,1.5h-1.3L281.4,114.9z"/>
	<path class="st8" d="M283.2,116.9l0.3-1.3c0.3,0.2,0.9,0.4,1.3,0.4c0.8,0,1-0.3,1-0.6c0-0.2-0.1-0.4-0.4-0.6l-0.6-0.4
		c-0.6-0.4-0.8-0.9-0.8-1.4c0-1,0.9-1.9,2.6-1.9c0.6,0,1.2,0.2,1.5,0.3l-0.3,1.3c-0.2-0.1-0.6-0.2-1.1-0.2c-0.6,0-0.9,0.2-0.9,0.5
		c0,0.2,0.1,0.3,0.3,0.5l0.6,0.4c0.5,0.4,0.9,0.9,0.9,1.5c0,1.3-1.1,2.1-2.7,2.1C284.2,117.4,283.5,117.2,283.2,116.9z"/>
</g>
</svg>
