<?xml version="1.0" encoding="utf-8"?>
<!-- Generator: Adobe Illustrator 25.3.0, SVG Export Plug-In . SVG Version: 6.00 Build 0)  -->
<svg version="1.1" id="Layer_1" xmlns="http://www.w3.org/2000/svg" xmlns:xlink="http://www.w3.org/1999/xlink" x="0px" y="0px"
	 viewBox="0 0 306 199" style="enable-background:new 0 0 306 199;" xml:space="preserve">
<style type="text/css">
	.st0{fill:#FCE7DE;}
	.st1{fill:#ED563B;}
	.st2{fill:none;stroke:#ED563B;stroke-width:3;}
	.st3{fill:#E6ECCE;}
	.st4{fill:none;stroke:#498A36;stroke-width:3;}
	.st5{fill:#498A36;}
	.st6{fill:#FFFFFF;}
	.st7{fill:#4771B5;}
</style>
<g id="graph">
	<path id="Path" class="st0" d="M27.6,8.5h-23H0V199h305.8V29l-3.2-0.1c-20,0,4.1,57.3-33.8,56.2c-34.3-1.1-22.5-57.8-51.7-65.8
		c-29.2-8-46.1,22.5-51.2,28.9c-5.1,6.4-16.4,22.5-35.8,21.4C110.6,68.5,95.2,46,77.3,27.3C59.4,8.5,49.2,8.5,27.6,8.5z"/>
	<ellipse id="Oval" class="st1" cx="301.8" cy="28.9" rx="4.1" ry="4.3"/>
	<path id="Path_1_" class="st2" d="M4.6,8.5c0.5,0,5.8,0,23,0c21.5,0,31.7,0,49.7,18.7C95.2,46,110.6,68.5,130,69.5
		c19.5,1.1,30.7-15,35.8-21.4s22-36.9,51.2-28.9c29.2,8,17.4,64.7,51.7,65.8c37.9,1.2,13.8-56.2,33.8-56.2"/>
	<path id="Path_2_" class="st3" d="M135.2,89.9C71.2,23,30.2,8.6,5.1,8.6H0V199h305.8v-42.8h-7.3
		C252.4,156.2,186.5,143.5,135.2,89.9z"/>
	<path id="Path_3_" class="st4" d="M5.1,8.6c25.1,0,66.6,15,130.6,81.8c51.4,53.7,116.7,65.8,162.8,65.8"/>
	<ellipse id="Oval_1_" class="st5" cx="297.8" cy="156.2" rx="8.2" ry="8.6"/>
	<ellipse id="Oval_2_" class="st6" cx="297.8" cy="156.2" rx="4.1" ry="4.3"/>
	<ellipse id="Oval_3_" class="st5" cx="8.2" cy="8.6" rx="8.2" ry="8.6"/>
	<ellipse id="Oval_4_" class="st6" cx="8.3" cy="8.6" rx="4.1" ry="4.3"/>
</g>
<g>
	<path class="st7" d="M13.4,167.1v1h3.8v4h-3.8v11.6c0,4.1-2.4,6.7-6.2,6.7c-0.9,0-1.7-0.1-2.2-0.4l0-4.2c0.3,0.1,0.8,0.2,1.3,0.2
		c1.4,0,2.2-1,2.2-2.6v-11.4H5.9v-4h2.6v-1.2c0-3.6,2.3-5.8,6.4-5.8c1,0,1.7,0.1,2.3,0.3v3.7c-0.4-0.1-0.8-0.2-1.4-0.2
		C14.1,164.9,13.4,165.7,13.4,167.1z"/>
	<path class="st7" d="M16.6,176.1c0-4.7,3.7-8.5,8.7-8.5c5.1,0,8.8,3.8,8.8,8.5c0,4.8-3.7,8.5-8.8,8.5
		C20.3,184.7,16.6,181,16.6,176.1z M29.4,176.1c0-2.4-1.7-4.3-4-4.3c-2.3,0-4,1.9-4,4.3c0,2.5,1.7,4.4,4,4.4
		C27.7,180.5,29.4,178.6,29.4,176.1z"/>
	<path class="st7" d="M47.4,167.9v4.9c-0.5-0.2-1.2-0.4-2-0.4c-2.3,0-4.2,1.4-4.2,4.1v7.8h-5v-16.1h4.5v3.1c0.8-2.2,2.8-3.6,5.2-3.6
		C46.4,167.7,47,167.8,47.4,167.9z"/>
	<path class="st7" d="M75.8,174.1v10.1h-5v-9.1c0-2.1-1.1-3.4-2.8-3.4c-2,0-3.3,1.5-3.3,3.8v8.8h-5v-9.1c0-2.1-1.1-3.4-2.8-3.4
		c-2,0-3.3,1.5-3.3,3.8v8.8h-5v-16.1h4.8v2.5c0.9-1.6,2.9-3,5.3-3c2.5,0,4.5,1.2,5.5,3.2c1-1.8,3-3.2,5.7-3.2
		C73.4,167.7,75.8,170.1,75.8,174.1z"/>
	<path class="st7" d="M78.6,176.6v-8.5h5v8.8c0,2.1,1,3.6,3.2,3.6c2.2,0,3.2-1.4,3.2-3.6v-8.8h5v8.5c0,5-3,8.1-8.2,8.1
		C81.6,184.7,78.6,181.6,78.6,176.6z"/>
	<path class="st7" d="M97.7,161.3h4.9v17.5c0,1,0.6,1.4,1.3,1.4c0.5,0,0.8-0.1,1.1-0.3v4c-0.5,0.4-1.6,0.6-2.6,0.6
		c-3.3,0-4.7-2.2-4.7-4.9V161.3z"/>
	<path class="st7" d="M121.2,177.3H110c0.5,2.2,2.3,3.4,5.2,3.4c2.3,0,4-0.5,5.2-1.2l0.1,3.9c-1.6,0.9-3.7,1.3-5.8,1.3
		c-5.6,0-9.2-3.5-9.2-8.5c0-4.7,3.5-8.5,8.2-8.5c4.4,0,7.7,3.1,7.7,7.9C121.4,176.3,121.3,176.9,121.2,177.3z M110,174.6h7
		c-0.1-1.9-1.5-3.1-3.4-3.1C111.8,171.6,110.5,172.8,110,174.6z"/>
	<path class="st7" d="M147,174.2v10h-5v-8.9c0-2.3-1.1-3.6-3.1-3.6c-2,0-3.5,1.5-3.5,4v8.6h-5v-22.9h4.8v8.8c1-1.4,3-2.5,5.4-2.5
		C144.4,167.7,147,170.2,147,174.2z"/>
</g>
</svg>
