<svg xmlns="http://www.w3.org/2000/svg" width="1968.72" height="512.06"><g fill="none" fill-rule="nonzero"><path fill="#1D1D1B" d="M233.38 151.22v31.79c0 11.53-6.29 17.47-17.47 17.47h-61.49v160.36c0 11.18-6.29 17.47-17.46 17.47H96.43c-11.17 0-17.46-6.29-17.46-17.47V200.48H17.48c-11.17 0-17.46-5.94-17.46-17.47v-31.79c0-11.18 6.29-17.47 17.46-17.47h198.44c11.18 0 17.47 6.29 17.47 17.47h-.01Zm291.68 0v209.62c0 11.18-6.29 17.47-17.46 17.47h-40.53c-11.17 0-17.46-6.29-17.46-17.47v-75.46h-93.63v75.46c0 11.18-6.29 17.47-17.46 17.47h-40.53c-11.17 0-17.46-6.29-17.46-17.47V151.22c0-11.18 6.29-17.47 17.46-17.47h40.53c11.17 0 17.46 6.29 17.46 17.47v67.08h93.63v-67.08c0-11.18 6.29-17.47 17.46-17.47h40.53c11.17 0 17.46 6.29 17.46 17.47Zm274.22 184.81v24.81c0 11.18-5.95 17.47-17.47 17.47H602.24c-11.17 0-17.46-6.29-17.46-17.47V151.22c0-11.53 6.29-17.47 17.46-17.47h176.08c11.53 0 17.47 5.94 17.47 17.47v24.81c0 11.18-5.94 17.47-17.47 17.47H660.24v34.23h90.47c9.43 0 14.67 5.24 14.67 14.67v22.36c0 9.43-5.24 14.67-14.67 14.67h-90.47v39.13h121.58c11.53 0 17.47 5.94 17.47 17.47h-.01Zm297.29 42.27h-46.82c-10.12 0-16.41-4.89-19.91-14.32l-8.74-23.76h-99.91l-8.74 23.76c-3.49 9.78-9.78 14.32-19.91 14.32h-42.62c-13.28 0-18.86-8.74-13.63-20.61l88.73-210.31c3.84-9.43 10.13-13.63 19.92-13.63h56.6c9.77 0 16.06 4.2 19.91 13.63l88.73 210.31c4.9 11.88-.69 20.61-13.62 20.61h.01Zm-94.33-90.14-31.09-86.64-31.44 86.64h62.53Zm152.99 72.68V151.22c0-11.18 6.29-17.47 17.46-17.47h33.19c9.08 0 15.72 2.79 21.66 9.78L1334.1 266.5V151.21c0-11.18 6.29-17.47 17.46-17.47h37.73c11.18 0 17.47 6.29 17.47 17.47v209.62c0 11.18-6.29 17.47-17.47 17.47h-30.39c-8.73 0-15.72-2.79-21.31-9.78l-109.7-126.81v119.13c0 11.18-6.29 17.47-17.47 17.47h-37.73c-11.17 0-17.46-6.29-17.46-17.47Zm525.76-24.81v24.81c0 11.18-5.95 17.47-17.47 17.47h-179.57c-11.17 0-17.46-6.29-17.46-17.47V151.22c0-11.53 6.29-17.47 17.46-17.47h176.08c11.53 0 17.47 5.94 17.47 17.47v24.81c0 11.18-5.94 17.47-17.47 17.47h-118.08v34.23h82.25c9.43 0 14.67 5.24 14.67 14.67v22.36c0 9.43-5.24 14.67-14.67 14.67h-82.25v39.13h121.58c11.53 0 17.47 5.94 17.47 17.47h-.01Zm42.26 19.91 71.61-102.36-68.12-97.47c-8.74-12.58-3.49-22.36 11.88-22.36h46.46c10.13 0 17.12 3.84 22.36 12.23l38.78 58.7 38.78-58.7c5.24-8.38 12.23-12.23 22.36-12.23h41.92c15.02 0 20.26 9.78 11.88 22.36l-68.13 97.47 71.62 102.36c8.38 12.58 3.49 22.36-11.88 22.36h-46.47c-10.13 0-17.11-3.84-22.36-12.23l-42.27-63.24-42.97 63.24c-5.24 8.38-12.23 12.23-22.36 12.23h-41.22c-15.37 0-20.62-9.78-11.88-22.36h.01Z"/><rect width="232.81" height="66.88" fill="#90C152" rx="33"/><rect width="249.69" height="66.88" x="1719.03" y="445.18" fill="#B3C038" rx="33"/></g></svg>