<?xml version="1.0" encoding="utf-8"?>
<!-- Generator: Adobe Illustrator 25.3.0, SVG Export Plug-In . SVG Version: 6.00 Build 0)  -->
<svg version="1.1" id="Layer_1" xmlns="http://www.w3.org/2000/svg" xmlns:xlink="http://www.w3.org/1999/xlink" x="0px" y="0px"
	 viewBox="0 0 1968.7 512.1" style="enable-background:new 0 0 1968.7 512.1;" xml:space="preserve">
<style type="text/css">
	.st0{fill:#4771B5;}
</style>
<g>
	<path class="st0" d="M116.4,135.2v14.2h52.8v56.1h-52.8V366c0,57.3-32.9,93.5-86.1,93.5c-12.2,0-23.6-2-30.5-4.9l0.4-57.7
		c4.5,2,10.6,3.2,17.5,3.2c19.9,0,30.1-14.2,30.1-36.6V205.5H11.6v-56.1h36.2v-16.7c0-50.4,32.1-80.9,89.4-80.9
		c13.8,0,24,1.2,32.1,4.1v51.2c-4.9-1.6-11.4-2.4-19.5-2.4C126.6,104.7,116.4,115.7,116.4,135.2z"/>
	<path class="st0" d="M160.7,260.3c0-65.4,51.6-117.4,121.1-117.4c70.3,0,121.5,52,121.5,117.4c0,67-51.2,118.2-121.5,118.2
		C211.9,378.6,160.7,327.4,160.7,260.3z M337.9,260.3c0-33.3-23.2-59.3-56.1-59.3c-32.1,0-55.3,26-55.3,59.3
		c0,34.5,23.2,60.5,55.3,60.5C314.7,320.9,337.9,294.9,337.9,260.3z"/>
	<path class="st0" d="M587.3,145.7v67.5c-7.3-3.3-16.7-6.1-28-6.1c-32.5,0-57.7,19.1-57.7,57.3v107.7h-69.9V149.4h62.6v43.1
		c10.6-30.5,38.2-49.6,71.5-49.6C573.5,142.9,581.6,144.1,587.3,145.7z"/>
	<path class="st0" d="M981.9,232.3v139.8H912V245.3c0-29.3-14.6-46.7-39.4-46.7c-28,0-45.5,21.1-45.5,52v121.5h-69.9V245.3
		c0-29.3-14.6-46.7-39.4-46.7c-27.6,0-45.5,21.1-45.5,52v121.5h-69.9V149.4h66.2v34.5c12.6-22.3,39.8-41,74-41
		c34.9,0,62.2,16.2,75.6,44.7c13.4-24.4,42.3-44.7,78.8-44.7C948.1,142.9,981.9,177,981.9,232.3z"/>
	<path class="st0" d="M1020,266.8V149.4h69.1v122.3c0,29.7,13.8,50,44.3,50c30.9,0,44.7-19.9,44.7-50V149.4h69.1v117.4
		c0,69.1-41,111.7-113.8,111.7C1061.4,378.6,1020,335.5,1020,266.8z"/>
	<path class="st0" d="M1285.7,55.1h67.8v242.6c0,13.8,8.9,19.9,18.3,19.9c6.9,0,11.4-1.6,14.6-3.7V370c-6.9,4.9-21.9,8.5-35.7,8.5
		c-46.3,0-65-30.9-65-68.3V55.1z"/>
	<path class="st0" d="M1611.2,276.6h-154.8c6.9,30.5,31.3,46.7,71.5,46.7c31.7,0,55.3-7.3,71.9-16.3l0.8,54
		c-21.5,13-51.2,17.5-80.5,17.5c-77.2,0-127.6-47.9-127.6-117.8c0-65.8,48.8-117.8,114.2-117.8c60.6,0,106.9,42.7,106.9,109.7
		C1613.6,263.2,1612.4,271.3,1611.2,276.6z M1456.4,239.6h97.1c-1.6-26.4-20.3-42.7-47.1-42.7C1480.7,196.9,1462,213.6,1456.4,239.6
		z"/>
	<path class="st0" d="M1968.7,233.5v138.6h-69.9V248.9c0-31.7-15.9-50.4-43.1-50.4c-28,0-48.7,21.1-48.7,54.9v118.7h-69.9v-317h66.2
		v122.3c14.2-19.5,41.4-34.5,74.4-34.5C1932.9,142.9,1968.7,177.8,1968.7,233.5z"/>
</g>
</svg>
