<svg width="141" height="140" viewBox="0 0 141 140" fill="none" xmlns="http://www.w3.org/2000/svg">
    <g clip-path="url(#clip0_65_5983)">
        <path d="M48.8999 93.481C52.2226 91.2131 56.1519 90 60.1748 90H78.0596C81.9362 90 85.7292 91.1266 88.9772 93.2427L109.285 106.473C114.181 109.664 117.437 114.836 118.197 120.63L121 142H19.5L21.5857 120.796C22.1652 114.904 25.3251 109.572 30.2148 106.234L48.8999 93.481Z" fill="#484B4C"/>
        <path d="M57.1118 88.3853L59 78H79L80.8882 88.3853C80.961 88.7856 81.1541 89.1541 81.4418 89.4418L82.5608 90.5608C83.3515 91.3515 83.3402 92.637 82.5357 93.4138L72.1874 103.405C70.6744 104.866 68.2886 104.906 66.7278 103.496L55.5616 93.4105C54.7123 92.6434 54.6787 91.3213 55.488 90.512L56.5582 89.4418C56.8459 89.1541 57.039 88.7856 57.1118 88.3853Z" fill="#E99167"/>
        <path d="M57.3274 34.4044C57.5374 31.2894 59.6024 27.5444 62.8574 26.8794C63.2774 26.7744 63.1374 26.1444 62.7174 26.2144C59.1824 26.7044 56.5924 31.0444 56.5224 34.4044C56.5574 34.8944 57.2924 34.9294 57.3274 34.4044Z" fill="#261A1A"/>
        <path d="M75.6674 37.7295C74.3374 37.5895 73.0074 37.7995 71.8174 38.3245C71.8874 38.1845 71.9924 38.0445 72.0974 37.9045C72.7974 36.8545 71.1174 35.8745 70.4174 36.9245C69.8224 37.7995 69.4024 38.7795 69.1224 39.7945C68.9824 40.3195 69.2624 40.7045 69.6474 40.8795C69.9274 41.2645 70.5574 41.4745 71.0474 41.0545C72.3774 39.9345 73.9174 39.3745 75.6674 39.5495C76.8224 39.6195 76.7874 37.8695 75.6674 37.7295Z" fill="#261A1A"/>
        <path d="M88.7924 58.9044C89.8424 55.0194 90.8924 49.5944 92.0474 46.8644C93.2024 44.1344 94.2524 39.4794 91.8724 36.9244C89.4924 34.3694 86.2374 35.5244 86.5874 34.8244C86.9374 34.1244 89.1424 33.5994 88.7924 30.6944C88.4424 27.7894 82.6324 21.7344 73.2174 24.8844C63.8024 28.0344 57.9924 33.0744 56.9424 33.5994C55.8924 34.1244 55.0174 32.4444 52.6374 33.8794C50.2574 35.2794 47.1774 36.1544 47.5274 40.4594C47.8774 44.7644 49.1024 57.7844 50.8874 60.6894C52.6374 63.5944 69.7874 67.2694 69.7874 67.2694L83.1574 62.6844L88.7924 58.9044Z" fill="#261A1A"/>
        <path d="M57.64 85.5L59 78L79.7624 78.96C79.7624 78.96 80.18 91.73 57.64 85.5Z" fill="#1A1A1A"/>
        <path d="M54.0373 55.1594C54.0373 55.1944 54.0373 55.1944 54.0373 55.2294C49.9773 54.5994 49.3823 58.2044 49.5223 60.1294C49.6973 62.8244 49.0673 68.3194 53.7573 68.4594C54.1073 71.0844 53.7923 72.3443 54.4573 74.8993C55.0523 77.1743 58.5873 80.5693 59.8473 81.9343C62.2623 84.5593 68.4223 85.3993 71.4673 84.8743C76.6823 83.9643 80.3573 80.9894 82.4923 77.5944C84.1723 74.9344 83.9273 73.0444 84.7323 69.8594C84.7323 69.8594 89.5273 69.4044 90.1223 61.9844C90.2973 59.7094 88.5823 55.4744 86.4823 56.4894C86.9373 54.6694 87.9873 51.1694 87.0073 50.7494C84.4873 49.6294 82.4573 45.6394 81.4423 45.0444C79.8673 44.1694 75.7373 44.3444 75.1773 44.3444C72.8673 44.3094 71.4323 39.3044 69.8923 40.9844C68.2473 42.8044 64.0473 46.1294 62.0173 47.0744C60.1623 47.9494 57.9573 49.5244 55.6123 49.9444C55.3673 49.9794 55.0873 49.8044 54.8773 49.9444C54.6673 50.0844 54.5623 50.3294 54.5273 50.5744C54.1773 51.6944 54.1073 54.0744 54.0373 55.1594Z" fill="#E99167"/>
        <path d="M67.9323 68.7748C67.5473 68.1448 68.1423 67.5148 68.7373 67.6898C69.0523 67.7248 69.3673 67.7598 69.6823 67.7948C70.2423 67.7948 70.6623 68.4598 70.2423 68.9848C70.1023 69.1598 69.8573 69.2648 69.6123 69.2298C69.2273 69.1948 68.8773 69.1598 68.4923 69.0898C68.2473 69.0898 68.0373 68.9848 67.9323 68.7748Z" fill="#D5745C"/>
        <path d="M64.3973 74.3748C64.3973 74.3748 73.9873 73.5698 73.8473 74.1998C73.6023 75.2148 71.7473 78.4349 69.1923 78.4349C66.3923 78.4349 62.1223 74.8648 64.3973 74.3748Z" fill="white"/>
        <path d="M76.3674 49.8399C77.3124 50.2249 78.2924 50.4349 79.2374 50.8549C80.1824 51.2749 81.0574 51.8349 82.0024 52.2899C82.8424 52.7099 82.2474 54.0399 81.4074 53.6199C80.4974 53.1649 79.5874 52.6049 78.6774 52.1849C77.7324 51.7649 76.7524 51.5549 75.8074 51.1699C74.9324 50.8549 75.4924 49.5249 76.3674 49.8399Z" fill="#261A1A"/>
        <path d="M57.5724 52.6741C58.4824 52.2541 59.3574 51.6941 60.3024 51.3091C61.2474 50.9241 62.2624 50.6791 63.2424 50.3291C64.1174 50.0141 64.6774 51.3441 63.8024 51.6591C62.8224 52.0091 61.8074 52.2541 60.8624 52.6391C59.9174 53.0241 59.0774 53.5841 58.1324 54.0041C57.2574 54.4241 56.7324 53.0941 57.5724 52.6741Z" fill="#261A1A"/>
        <path d="M76.7873 58.9743C77.0323 58.6943 77.3123 58.5543 77.6623 58.5893C77.6973 58.5893 77.7323 58.5893 77.7673 58.5893H77.8023H77.8373C78.9923 58.6593 79.3773 60.1993 78.8873 61.0743C78.8173 61.2843 78.7123 61.4943 78.5373 61.5993C78.3623 61.7393 78.1523 61.7743 77.9073 61.7743C77.8723 61.7743 77.8723 61.8093 77.8373 61.8093C77.3123 61.9493 76.9273 61.6693 76.6823 61.2143C76.1923 60.6193 76.2273 59.6043 76.7873 58.9743Z" fill="#1A1A1A"/>
        <path d="M60.8623 58.5898C61.3173 57.9248 62.1923 57.7847 62.8223 58.2747C62.8923 58.3097 62.9273 58.3798 62.9623 58.4148C63.1023 58.5898 63.2073 58.7998 63.2073 59.0448C63.2073 59.0798 63.2073 59.1148 63.2073 59.1148C63.2073 59.1148 63.2073 59.1147 63.2073 59.1497C63.1723 59.5697 63.1023 60.0247 62.8573 60.3747C62.4023 61.0747 61.4223 61.0398 60.8973 60.4448C60.4773 59.9198 60.5123 59.1498 60.8623 58.5898Z" fill="#1A1A1A"/>
        <path opacity="0.25" d="M77.7323 64.8188C80.3032 64.8188 82.3874 62.7347 82.3874 60.1638C82.3874 57.5929 80.3032 55.5088 77.7323 55.5088C75.1615 55.5088 73.0773 57.5929 73.0773 60.1638C73.0773 62.7347 75.1615 64.8188 77.7323 64.8188Z" fill="#FCFCFC"/>
        <path d="M86.5523 56.489C86.5523 56.489 83.7523 57.784 82.4923 57.924C81.5473 55.719 79.3423 54.319 76.9623 54.634C75.1423 54.879 73.6723 56.104 72.9723 57.714C71.1173 56.174 68.3523 56.139 66.4623 57.259C66.4273 57.434 66.4623 58.379 66.8823 58.099C68.4573 57.189 70.8373 57.189 72.4123 58.484C72.4823 58.554 72.5873 58.589 72.6573 58.589C72.4823 59.289 72.4123 60.059 72.5173 60.829C72.9373 63.874 75.5973 66.009 78.4673 65.589C81.3373 65.204 83.3323 62.404 82.9123 59.394C82.8773 59.184 82.8423 59.009 82.8073 58.834C83.9623 58.694 86.5523 57.469 86.5523 57.469V56.489ZM77.7323 64.784C75.1773 64.784 73.0773 62.719 73.0773 60.129C73.0773 57.539 75.1423 55.474 77.7323 55.474C80.3223 55.474 82.3873 57.539 82.3873 60.129C82.3873 62.719 80.2873 64.784 77.7323 64.784Z" fill="#484B4C"/>
        <path opacity="0.5" d="M79.3423 55.6143C79.3423 55.6143 74.1273 62.5793 74.7223 63.1393C75.3173 63.7343 75.8773 64.2943 75.8773 64.2943L79.9373 56.1742L79.3423 55.6143Z" fill="white"/>
        <path opacity="0.5" d="M80.4973 57.3643L78.1873 62.5793L81.0573 58.5193L80.4973 57.3643Z" fill="white"/>
        <path opacity="0.25" d="M61.7373 64.2241C64.3082 64.2241 66.3924 62.1399 66.3924 59.5691C66.3924 56.9982 64.3082 54.9141 61.7373 54.9141C59.1665 54.9141 57.0824 56.9982 57.0824 59.5691C57.0824 62.1399 59.1665 64.2241 61.7373 64.2241Z" fill="#FCFCFC"/>
        <path d="M66.4973 57.3644C65.5523 55.1594 63.3473 53.7594 60.9673 54.0744C59.1473 54.3194 57.6773 55.5444 56.9773 57.1544C56.8023 57.4344 56.7323 57.7844 56.6623 58.0294C56.4873 58.7294 56.4173 59.4994 56.5223 60.2694C56.9423 63.3144 59.6023 65.4494 62.4723 65.0294C65.3423 64.6444 67.3373 61.8444 66.9173 58.8344C66.8823 58.6244 66.8473 58.4494 66.8123 58.2744C66.6723 57.6794 66.5673 57.7144 66.4973 57.3644ZM61.7373 64.2244C59.1823 64.2244 57.0823 62.1594 57.0823 59.5694C57.0823 57.0144 59.1473 54.9144 61.7373 54.9144C64.2923 54.9144 66.3923 56.9794 66.3923 59.5694C66.3573 62.1244 64.2923 64.2244 61.7373 64.2244Z" fill="#484B4C"/>
        <path opacity="0.5" d="M63.3123 55.0547C63.3123 55.0547 58.0973 62.0197 58.6923 62.5797C59.2873 63.1747 59.8473 63.7347 59.8473 63.7347L63.9073 55.6147L63.3123 55.0547Z" fill="white"/>
        <path opacity="0.5" d="M64.5023 56.7695L62.1573 61.9845L65.0624 57.9245L64.5023 56.7695Z" fill="white"/>
        <path d="M54.0023 54.2148L57.6073 56.1398L57.1523 57.0148L53.8973 55.1248L54.0023 54.2148Z" fill="#484B4C"/>
        <path d="M38.6704 129.954C38.5013 132.153 38.3755 134.553 38 138L39 138C39.3755 134.553 39.4621 132.32 39.5901 130.111C39.8139 126.57 38.8989 126.208 38.6704 129.954Z" fill="#2E3233"/>
        <path d="M101.229 129.954C101.398 132.153 101.524 134.553 101.9 138L100.9 138C100.524 134.553 100.437 132.32 100.31 130.111C100.086 126.57 101.001 126.208 101.229 129.954Z" fill="#2E3233"/>
        <path d="M55.5 90.5L55.4593 90.561C54.9085 91.3873 55.0474 92.4926 55.7855 93.157L66.7301 103.007C68.2906 104.412 70.6713 104.371 72.1825 102.913L82.2977 93.1594C82.9938 92.4881 83.1099 91.4149 82.5735 90.6103L82.5 90.5L83.6714 90.8347C84.707 91.1306 85.0346 92.4361 84.2614 93.1859L72.2408 104.842C70.7069 106.33 68.2748 106.349 66.7175 104.886L54.5219 93.4294C53.5271 92.4949 53.8154 91.0235 55.1186 90.6177C55.3511 90.5453 55.5 90.5 55.5 90.5Z" fill="#2E3233"/>
    </g>
    <defs>
        <clipPath id="clip0_65_5983">
            <rect x="0.5" width="140" height="140" rx="70" fill="white"/>
        </clipPath>
    </defs>
</svg>